<svg xmlns="http://www.w3.org/2000/svg" viewBox="0 0 120.771 162.202">
  <defs>
    <style>
      .cls-1 {
        fill: #686868;
      }
    </style>
  </defs>
  <g id="wedding-ring-icon-png-24" transform="translate(-51.974 -49.152)">
    <path id="Path_2061" data-name="Path 2061" class="cls-1" d="M74.336,61.8c4.205-4.679,8.517-9.275,12.71-13.966,14.89,0,29.767.13,44.657.213,4.241,4.6,8.529,9.145,12.757,13.741Q136.411,77.011,128.4,92.262c17.093,5.816,31.461,19.367,37.585,36.436A60.361,60.361,0,1,1,66.1,107.767a61.376,61.376,0,0,1,24.33-15.423Q82.455,77.029,74.336,61.8M92.85,52.3l5.65,6.4c1.978-2.132,3.945-4.252,5.9-6.4q-5.775-.018-11.549,0m21.547.012c1.883,2.132,3.779,4.252,5.674,6.385l5.9-6.4q-5.792-.018-11.573.012M82.4,59.628c3.779.012,7.569.012,11.348,0-1.883-2.132-3.779-4.264-5.662-6.4q-2.861,3.2-5.686,6.4m21.1.237c3.862.012,7.711.024,11.573,0-1.883-2.132-3.767-4.252-5.662-6.385-1.978,2.132-3.945,4.252-5.911,6.385m27.446-6.136c-1.966,2.037-3.944,4.087-5.9,6.136,3.933.024,7.865.012,11.81,0q-2.949-3.074-5.911-6.136M81.952,64.141c4.857,7.534,9.843,14.984,14.665,22.53a26.465,26.465,0,0,0,3.554,4.17c-.438-8.955-2.132-17.78-3.068-26.688-5.058-.012-10.1-.036-15.15-.012m19.876,0c2.239,8.351,4.039,16.82,6.539,25.088.509,0,1.552-.012,2.073-.012,2.642-8.268,4.608-16.737,7-25.077q-7.8-.018-15.612,0m16.619,26.688c6.894-8.114,11.857-17.709,17.946-26.439q-7.214-.018-14.416-.012c-1.137,8.813-3.08,17.555-3.53,26.451m-19.142,12.5a47.293,47.293,0,1,0,56.668,40.724A47.878,47.878,0,0,0,135.73,110.5,47.139,47.139,0,0,0,99.306,103.325Z" transform="translate(2.965 1.321)"/>
  </g>
</svg>
