<svg xmlns="http://www.w3.org/2000/svg" viewBox="0 0 272 185.455">
  <defs>
    <style>
      .cls-1 {
        fill: #686a6e;
      }
    </style>
  </defs>
  <path id="Eye" class="cls-1" d="M326.9,106.636c-21.018,0-37.091,16.073-37.091,37.091s16.073,37.091,37.091,37.091,37.091-16.073,37.091-37.091S347.918,106.636,326.9,106.636Zm0,98.909c-34.618,0-61.818-27.2-61.818-61.818s27.2-61.818,61.818-61.818,61.818,27.2,61.818,61.818S361.518,205.546,326.9,205.546ZM326.9,51a145.666,145.666,0,0,0-136,92.727,146.1,146.1,0,0,0,272,0A145.666,145.666,0,0,0,326.9,51Z" transform="translate(-190.9 -51)"/>
</svg>
