<svg xmlns="http://www.w3.org/2000/svg" viewBox="0 0 109 109">
  <defs>
    <style>
      .cls-1 {
        fill: #818385;
      }
    </style>
  </defs>
  <path id="List_icon" data-name="List icon" class="cls-1" d="M50.875,16.818H119V30.443H50.875Zm0,40.875H119V71.318H50.875Zm0,40.875H119v13.625H50.875ZM10,23.625A13.625,13.625,0,1,1,23.625,37.25,13.619,13.619,0,0,1,10,23.625ZM10,64.5A13.625,13.625,0,1,1,23.625,78.125,13.619,13.619,0,0,1,10,64.5Zm0,40.875A13.625,13.625,0,1,1,23.625,119,13.619,13.619,0,0,1,10,105.375Z" transform="translate(-10 -10)"/>
</svg>
