<?xml version="1.0" encoding="UTF-8" ?>
<!DOCTYPE svg PUBLIC "-//W3C//DTD SVG 1.1//EN" "http://www.w3.org/Graphics/SVG/1.1/DTD/svg11.dtd">
<svg width="16pt" height="16pt" viewBox="0 0 16 16" version="1.1" xmlns="http://www.w3.org/2000/svg">
<g id="#fdfdfdfd">
<path fill="#fdfdfd" opacity="1.00" d=" M 6.40 0.00 L 9.41 0.00 C 9.41 2.13 9.41 4.26 9.41 6.39 C 11.61 6.40 13.81 6.42 16.00 6.49 L 16.00 9.35 C 13.80 9.40 11.61 9.41 9.41 9.42 C 9.41 11.61 9.40 13.81 9.36 16.00 L 6.50 16.00 C 6.41 13.81 6.39 11.62 6.40 9.42 C 4.26 9.41 2.13 9.41 0.00 9.40 L 0.00 6.40 C 2.13 6.40 4.27 6.40 6.40 6.40 C 6.40 4.27 6.40 2.13 6.40 0.00 Z" />
</g>
</svg>
