<svg xmlns="http://www.w3.org/2000/svg" viewBox="0 0 112.843 123.494">
  <defs>
    <style>
      .cls-1 {
        fill: #b2b2b2;
      }
    </style>
  </defs>
  <path id="Random_Cube" data-name="Random Cube" class="cls-1" d="M122.339,44.764A10.354,10.354,0,0,0,117.252,46L71.9,72.229c-2.841,1.644-2.841,4.242,0,5.886l45.349,26.232a11.114,11.114,0,0,0,10.174,0l45.349-26.232c2.841-1.643,2.841-4.242,0-5.886L127.426,46a10.347,10.347,0,0,0-5.087-1.233Zm-.245,15.767a14.846,14.846,0,0,1,7.217,1.838,6.265,6.265,0,0,1,2.87,2.8,6.829,6.829,0,0,1,.077,4.116l-.475,1.694a5.011,5.011,0,0,0-.2,2.615,2.5,2.5,0,0,0,1.259,1.349l1.006.563-9.867,5.528-1.1-.614a4.912,4.912,0,0,1-2.34-2.322,7.3,7.3,0,0,1,.176-4.158l.452-1.706a4.527,4.527,0,0,0,.077-2.5,2.624,2.624,0,0,0-1.319-1.567,6.1,6.1,0,0,0-3.75-.63,11.933,11.933,0,0,0-4.557,1.551,17.5,17.5,0,0,0-4.023,3.105,19.037,19.037,0,0,0-3.143,4.242l-7.021-3.934a50.066,50.066,0,0,1,4.654-4.16,38.383,38.383,0,0,1,4.828-3.206,34.357,34.357,0,0,1,12.4-4.443,20.357,20.357,0,0,1,2.767-.165Zm15.068,16.833,7.961,4.46-9.867,5.528-7.961-4.46,9.867-5.528Zm-68.288,5.72c-1.708-.046-2.869,1.287-2.869,3.646v46.816a11.14,11.14,0,0,0,5.088,8.814l43.62,25.189c2.841,1.641,5.088.343,5.088-2.938V117.794a11.139,11.139,0,0,0-5.088-8.814L71.094,83.791a4.762,4.762,0,0,0-2.219-.709Zm107.1,0a4.761,4.761,0,0,0-2.219.708l-43.621,25.189a11.14,11.14,0,0,0-5.088,8.814v46.817c0,3.28,2.247,4.577,5.088,2.936l43.622-25.188a11.138,11.138,0,0,0,5.088-8.814V86.73c0-2.358-1.161-3.691-2.869-3.645ZM80.521,102.01a38.531,38.531,0,0,1,5.33,1.488,29.566,29.566,0,0,1,4.655,2.175,27.8,27.8,0,0,1,8.971,7.743,15.565,15.565,0,0,1,3.087,9.215,7.249,7.249,0,0,1-.94,3.967,7,7,0,0,1-3.207,2.4l-1.544.57a4.962,4.962,0,0,0-2.146,1.324,2.892,2.892,0,0,0-.506,1.809v1.153l-8.706-5.027v-1.256a5.691,5.691,0,0,1,.8-3.257,7.322,7.322,0,0,1,3.352-2.217l1.544-.6a4.539,4.539,0,0,0,2-1.356,3.048,3.048,0,0,0,.651-1.982,5.99,5.99,0,0,0-1.158-3.462,9.693,9.693,0,0,0-3.231-2.892,13.493,13.493,0,0,0-4.221-1.565,15.178,15.178,0,0,0-4.727-.191V102.01Zm80.02,2.555a5.125,5.125,0,0,1,1.256.146q3.087.755,3.087,5.651a14.486,14.486,0,0,1-.941,5.054,34.883,34.883,0,0,1-3.207,6.106l-1.544,2.352a25.37,25.37,0,0,0-2.146,3.8,6.32,6.32,0,0,0-.506,2.394v1.153l-8.706,5.027v-1.256a11.585,11.585,0,0,1,.8-4.176,37.158,37.158,0,0,1,3.352-6.087l1.544-2.378a23.035,23.035,0,0,0,2-3.668,7.249,7.249,0,0,0,.651-2.734q0-1.794-1.157-2.125-1.158-.356-3.232.84a22.59,22.59,0,0,0-4.22,3.309,50.462,50.462,0,0,0-4.727,5.267v-8.048q2.918-2.761,5.329-4.666a39.193,39.193,0,0,1,4.655-3.2q4.782-2.761,7.716-2.763ZM85.513,132.625l8.706,5.026v9.125l-8.706-5.026v-9.124Zm71.026,2.393v9.124l-8.706,5.026v-9.124l8.706-5.027Z" transform="translate(-66.006 -44.764)"/>
</svg>
