<svg xmlns="http://www.w3.org/2000/svg" viewBox="0 0 140.71 211.786">
  <defs>
    <style>
      .cls-1 {
        fill: #ffd8d8;
      }
    </style>
  </defs>
  <g id="OK" transform="translate(-136.646 -196.214)">
    <path id="OK-2" data-name="OK" class="cls-1" d="M150.68,13.167c2.532-.494,5.835-2.1,7.837.313a34.088,34.088,0,0,1,.506,5.642c1.169,30.249,2.508,60.487,3.472,90.748,1.374-17.638,1.616-35.361,2.918-53,.651-7.342,8.126-12.671,15.275-11.357,2.182.784,1.531,3.147,1.4,4.907-3.8,32.6-7.378,65.237-11.224,97.837-3.629,20.821-7.861,41.57-10.38,62.572-.627,3.8-.06,7.981-2,11.441-2.23,1.724-5.208,1.64-7.885,1.7q-26.566-.072-53.144-.012c-2.025-.157-4.786.121-5.992-1.929a86.759,86.759,0,0,0-5.98-9.959c-14.021-19.4-29.044-38.05-43.909-56.8,3.713-11.538,7.957-22.907,12.225-34.252.965-3.171,4.883-2.158,7.2-1.35,5.088,1.555,8.488,6.486,9.018,11.646,1.121,6.4-1.76,12.539-1.833,18.9,8.608,4.184,17.084,8.693,26.15,11.791,2.809.784,6.113,2.146,8.789.229,6.245-3.653,11.815-8.331,17.47-12.84.711-8.03,1.362-16.059,2.038-24.1-4.859-4.533-9.971-8.861-14.19-14.034-5.027,1.061-10.212,1.447-15.155,2.894-4.666,4.473-9.512,9.657-16.24,10.706-4.786-.326-8.946-3.472-12.382-6.583-1.326-1.025-.229-2.6.482-3.593,4.087-5.558,8.427-10.923,12.49-16.493,1.82-2.327,3.472-5.293,6.715-5.7,8.777-2.242,17.421-5.1,26.343-6.752,6.378,3.3,11.888,8.222,17.94,12.141,3.171,2.375,6.908,4.2,9.416,7.33,6.076,9.332,11.345,19.206,17.614,28.4,3.7.9,1.676-2.676.615-4.328-4.943-7.957-9.778-15.975-14.648-23.968-2.689-4.7-8.343-6.137-12.225-9.549-2.918-7.728-3.291-16.228-6.1-24.016-4.388-9.645-9.368-19.025-13.431-28.815-2.942-7.21,1.157-16.035,8.476-18.579,2.544-.952,6.9-2.749,8.21.832C137.96,50.325,149.245,75.523,159,101.347c-2.315-9.03-5.353-17.855-7.945-26.813-2.532-9.271-7.547-17.578-10.887-26.536a115.859,115.859,0,0,1-.663-25.113C140.058,17.254,145.905,14.566,150.68,13.167Z" transform="translate(95.075 184.028)"/>
  </g>
</svg>
