<svg xmlns="http://www.w3.org/2000/svg" viewBox="0 0 172.626 206.896">
  <defs>
    <style>
      .cls-1 {
        fill: #fcd7d7;
      }
    </style>
  </defs>
  <g id="Thumb_UP" data-name="Thumb UP" transform="translate(-121.001 -200)">
    <path id="Thumb_UP-2" data-name="Thumb UP" class="cls-1" d="M255.3,122.323c8.446-6.63,17.187-27.765-8.657-33.888-18.58-4.349-31.058,8.889-39.884-10.578C198.648,60.016,223.647,27.67,196.431,12.4c-10.008-5.637-19.235-2.048-18.263,13.323,1.816,30.826-16.807,35.239-30.657,64.08-13.217,7.728-23.985,11.971-37.266,19.868l-19.045.19v89.67h17.693l13.661,3.991c20.924,10.979,46.767,13.259,64.735,13.259,10.831,0,32.642-1.013,39.757-6.714,8.065-6.44,10.388-16.785,11.106-21.135,14.041-5.637,17.8-17.377,12.647-30.108,6.081-3.336,9.839-7.812,11.211-13.281C264.818,134.484,257.386,125.954,255.3,122.323Z" transform="translate(29.801 190.11)"/>
  </g>
</svg>
